# AST/ASF file generated using VICON BodyLanguage
# -----------------------------------------------
:version 1.10
:name VICON
:units
  mass 1.0
  length 0.45
  angle deg
:documentation
   .ast/.asf automatically generated from VICON data using
   VICON BodyBuilder and BodyLanguage model FoxedUp or BRILLIANT.MOD
:root
   order TX TY TZ RX RY RZ
   axis XYZ
   position 0 0 0  
   orientation 0 0 0 
:bonedata
  begin
     id 1 
     name lhipjoint
     direction 0.566809 -0.746272 0.349008 
     length 2.40479 
     axis 0 0 0  XYZ
  end
  begin
     id 2 
     name lfemur
     direction 0.34202 -0.939693 0  
     length 7.1578  
     axis 0 0 20  XYZ
    dof rx ry rz
    limits (-160.0 20.0)
           (-70.0 70.0)
           (-60.0 70.0)
  end
  begin
     id 3 
     name ltibia
     direction 0.34202 -0.939693 0   
     length 7.49137   
     axis 0 0 20   XYZ
    dof rx
    limits (-10.0 170.0)
  end
  begin
     id 4 
     name lfoot
     direction 0.0665746 -0.182912 0.980873   
     length 2.36784   
     axis -90 7.62852e-016 20   XYZ
    dof rx rz
    limits (-45.0 90.0)
           (-70.0 20.0)
  end
  begin
     id 5 
     name ltoes
     direction 1.53601e-011 -4.22058e-011 1   
     length 1.18966   
     axis -90 7.62852e-016 20   XYZ
    dof rx
    limits (-90.0 20.0)
  end
  begin
     id 6 
     name rhipjoint
     direction -0.550236 -0.756381 0.353735   
     length 2.37265  
     axis 0 0 0  XYZ 
  end
  begin
     id 7 
     name rfemur
     direction -0.34202 -0.939693 0   
     length 7.43386   
     axis 0 0 -20   XYZ
    dof rx ry rz
    limits (-160.0 20.0)
           (-70.0 70.0)
           (-70.0 60.0)
  end
  begin
     id 8 
     name rtibia
     direction -0.34202 -0.939693 0   
     length 7.50908   
     axis 0 0 -20   XYZ
    dof rx
    limits (-10.0 170.0)
 end
 begin
     id 9 
     name rfoot
     direction -0.0683029 -0.187661 0.979856   
     length 2.41173  
     axis -90 -7.62852e-016 -20   XYZ
    dof rx rz
    limits (-45.0 90.0)
           (-20.0 70.0)
  end
  begin
     id 10 
     name rtoes
     direction -1.53528e-011 -4.21968e-011 1   
     length 1.21082   
     axis -90 -7.62852e-016 -20   XYZ
    dof rx
    limits (-90.0 20.0)
  end
  begin
     id 11 
     name lowerback
     direction 0.013823 0.995423 -0.0945635   
     length 2.04495   
     axis 0 0 0   XYZ
    dof rx ry rz
    limits (-20.0 45.0)
           (-30.0 30.0)
           (-30.0 30.0)
  end
  begin
     id 12 
     name upperback
     direction 0.0276657 0.9994 -0.020853   
     length 2.05008   
     axis 0 0 0   XYZ
    dof rx ry rz
    limits (-20.0 45.0)
           (-30.0 30.0)
           (-30.0 30.0)
  end
  begin
     id 13 
     name thorax
     direction 0.019782 0.999531 0.0233827   
     length 2.06488   
     axis 0 0 0   XYZ
    dof rx ry rz
    limits (-20.0 45.0)
           (-30.0 30.0)
           (-30.0 30.0)
  end
  begin
     id 14 
     name lowerneck
     direction -0.0308541 0.994709 0.0979874   
     length 1.75553   
     axis 0 0 0   XYZ
    dof rx ry rz
    limits (-20.0 45.0)
           (-30.0 30.0)
           (-30.0 30.0)
  end
  begin
     id 15 
     name upperneck
     direction 0.0588398 0.995804 -0.0700903   
     length 1.76878   
     axis 0 0 0   XYZ
    dof rx ry rz
    limits (-20.0 45.0)
           (-30.0 30.0)
           (-30.0 30.0)
  end
  begin
     id 16
     name head
     direction 0.0209966 0.999159 -0.0352225  
     length 1.77193  
     axis 0 0 0   XYZ
    dof rx ry rz
    limits (-20.0 45.0)
           (-30.0 30.0)
           (-30.0 30.0)
  end
  begin
     id 17 
     name lclavicle
     direction 0.938182 0.335073 -0.0868338  
     length 3.58396  
     axis 0 0 0   XYZ
    dof ry rz
    limits (-20.0 10.0)
           (0.0 20.0)
  end
  begin
     id 18 
     name lhumerus
     direction 1 -4.48971e-011 -1.26313e-017   
     length 4.983   
     axis 180 -30 -90   XYZ
    dof rx ry rz
    limits (-60.0 90.0)
           (-90.0 90.0)
           (-90.0 90.0)
  end
  begin
     id 19
     name lradius
     direction 1 -4.48948e-011 -5.89033e-027   
     length 3.48356   
     axis 180 -30 -90   XYZ
    dof rx
    limits (-10.0 170.0)
  end
  begin
     id 20
     name lwrist
     direction 1 -4.48977e-011 -1.48983e-026   
     length 1.74178   
     axis 9.0955e-015 90 90   XYZ
    dof ry
    limits (-180.0 0.0)
 end
  begin
     id 21 
     name lhand
     direction 1 -4.49046e-011 -2.98066e-026   
     length 0.715259   
     axis 1.90115e-014 90 90   XYZ
    dof rx rz
    limits (-90.0 90.0)
           (-45.0 45.0)
  end
  begin
     id 22 
     name lfingers
     direction 1 -4.48907e-011 -5.95731e-026   
     length 0.576661   
     axis 3.80223e-014 90 90   XYZ
    dof rx
    limits (0.0 90.0)
  end
  begin
     id 23
     name lthumb
     direction 0.707107 -6.34963e-011 0.707107   
     length 0.827973   
     axis -90 45 -3.84942e-014   XYZ
    dof rx rz
    limits (-45.0 45.0)
           (-45.0 45.0)
  end
  begin
     id 24 
     name rclavicle
     direction -0.909637 0.398485 -0.11735   
     length 3.44819  
     axis 0 0 0   XYZ 
    dof ry rz
    limits (-10.0 20.0)
           (-20.0 0.0)
  end
  begin
     id 25 
     name rhumerus
     direction -1 -4.48978e-011 -1.09333e-027  
     length 5.2419   
     axis 180 30 90   XYZ
    dof rx ry rz
    limits (-90.0 60.0)
           (-90.0 90.0)
           (-90.0 90.0)
  end
  begin
     id 26 
     name rradius
     direction -1 -4.48953e-011 -7.61841e-027   
     length 3.44417   
     axis 180 30 90   XYZ
    dof rx
    limits (-10.0 170.0)
  end
  begin
     id 27 
     name rwrist
     direction -1 -4.48977e-011 -1.48983e-026   
     length 1.72209   
     axis 9.0955e-015 -90 -90   XYZ
    dof ry
    limits (-180.0 0.0)
  end
  begin
     id 28
     name rhand
     direction -1 -4.49027e-011 -2.98038e-026   
     length 0.622529   
     axis 1.90115e-014 -90 -90   XYZ
    dof rx rz
    limits (-90.0 90.0)
           (-45.0 45.0)
  end
  begin
     id 29
     name rfingers
     direction -1 -4.48838e-011 -5.95531e-026   
     length 0.501899   
     axis 3.80223e-014 -90 -90   XYZ
    dof rx
    limits (0.0 90.0)
  end
  begin
     id 30
     name rthumb
     direction -0.707107 -6.34937e-011 0.707107   
     length 0.720629   
     axis -90 -45 3.84942e-014   XYZ
    dof rx rz
    limits (-45.0 45.0)
           (-45.0 45.0)
  end
:hierarchy
  begin
    root lhipjoint rhipjoint lowerback
    lhipjoint lfemur
    lfemur ltibia
    ltibia lfoot
    lfoot ltoes
    rhipjoint rfemur
    rfemur rtibia
    rtibia rfoot
    rfoot rtoes
    lowerback upperback
    upperback thorax
    thorax lowerneck lclavicle rclavicle
    lowerneck upperneck
    upperneck head
    lclavicle lhumerus
    lhumerus lradius
    lradius lwrist
    lwrist lhand lthumb
    lhand lfingers
    rclavicle rhumerus
    rhumerus rradius
    rradius rwrist
    rwrist rhand rthumb
    rhand rfingers
  end

#!OML:ASF F:\VICON\USERDATA\Patient Classification 1\PLAYGROUND\JustinFriday\JustinFriday.ASF
:FULLY-SPECIFIED
:DEGREES
1087
root -23.8994 22.2123 -11.109 365.594 83.1995 -6.15167
lowerback 30.1292 0.79731 -3.1073
upperback 10.7458 1.15692 0.543991
thorax -4.46477 0.88542 1.98411
lowerneck -7.11854 -3.36566 -3.80517
upperneck 25.1905 -3.25342 -0.411858
head 9.12426 -1.68905 0.22219
rclavicle -2.69353e-014 -3.93594e-014
rhumerus 61.5005 5.42104 -62.4896
rradius 65.245
rwrist 12.282
rhand -27.765 -8.97694
rfingers 7.12502
rthumb -1.15893 -38.9535
lclavicle -2.69353e-014 -3.93594e-014
lhumerus 43.5424 -17.1677 59.4596
lradius 58.5948
lwrist -18.1156
lhand -19.7185 -12.6313
lfingers 7.12502
lthumb 6.61157 17.2455
rfemur -82.3461 -1.81183 22.1031
rtibia 101.922
rfoot -23.8906 4.11493
rtoes -0.324785
lfemur -28.0371 6.00646 -24.6483
ltibia 31.8606
lfoot -19.67 -5.26456
ltoes 9.61605
1088
root -23.9183 22.281 -11.1279 354.203 83.3129 -17.6334
lowerback 30.4897 0.490428 -1.09655
upperback 10.6091 1.30375 0.400344
thorax -4.77249 0.993852 0.61017
lowerneck -7.15981 -3.51053 -3.26332
upperneck 25.1613 -3.59185 -0.224378
head 9.1163 -1.77852 0.160314
rclavicle 2.68359e-015 -5.2181e-015
rhumerus 59.8977 5.41616 -62.9897
rradius 65.8929
rwrist 12.4934
rhand -31.3246 -8.93272
rfingers 7.12502
rthumb -4.5966 -38.8629
lclavicle 2.68359e-015 -5.2181e-015
lhumerus 44.7191 -17.8748 59.072
lradius 57.4902
lwrist -17.9553
lhand -19.031 -13.7364
lfingers 7.12502
lthumb 7.27525 16.1185
rfemur -81.7117 -1.30703 23.0768
rtibia 102.491
rfoot -24.4688 5.41828
rtoes 7.69103
lfemur -27.8921 5.09324 -22.7253
ltibia 31.5858
lfoot -19.107 -5.5046
ltoes 12.2408
1089
root -23.9379 22.3524 -11.16 349.291 83.0993 -22.5496
lowerback 30.9209 0.218168 0.119261
upperback 10.4201 1.27226 0.151363
thorax -5.15965 0.996138 -0.367165
lowerneck -7.24595 -3.40266 -3.44807
upperneck 25.3161 -3.50389 0.190845
head 9.19707 -1.71204 0.339929
rclavicle -1.45113e-014 -2.18663e-015
rhumerus 58.409 5.80813 -63.4732
rradius 66.4234
rwrist 13.0635
rhand -33.8353 -7.27903
rfingers 7.12502
rthumb -7.02054 -37.1426
lclavicle -1.45113e-014 -2.18663e-015
lhumerus 45.1124 -18.4352 58.8035
lradius 56.9564
lwrist -18.5911
lhand -19.7836 -12.6869
lfingers 7.12502
lthumb 6.54874 17.1918
rfemur -81.2178 -1.09868 23.3995
rtibia 103.11
rfoot -24.6 5.64584
rtoes 13.9332
lfemur -27.4055 2.72182 -21.0527
ltibia 31.2298
lfoot -18.2278 -6.32019
ltoes 20.2896
1090
root -23.9634 22.2792 -11.1079 370.853 83.3768 -1.38199
lowerback 29.8277 0.532871 -3.21337
upperback 10.3144 0.695047 -0.18115
thorax -4.78028 0.666072 1.39222
lowerneck -7.00538 -3.23182 -3.702
upperneck 25.2729 -3.18833 0.0010113
head 9.13369 -1.60928 0.353414
rclavicle 1.23246e-014 1.8487e-014
rhumerus 57.5402 7.58203 -63.0484
rradius 67.1278
rwrist 12.1128
rhand -36.6915 -7.78251
rfingers 7.12502
rthumb -9.77702 -37.5356
lclavicle 1.23246e-014 1.8487e-014
lhumerus 44.3783 -17.4394 59.8173
lradius 56.3817
lwrist -19.0502
lhand -19.2912 -12.7816
lfingers 7.12502
lthumb 7.02402 17.0818
rfemur -82.859 -2.28168 20.879
rtibia 104.9
rfoot -24.2922 4.86324
rtoes 14.5892
lfemur -28.1903 3.76648 -24.7835
ltibia 30.8919
lfoot -18.5693 -2.1941
ltoes -3.32193
1091
root -23.9859 22.2839 -11.0824 366.143 83.6155 -5.92175
lowerback 30.0834 0.397864 -3.22171
upperback 10.2758 0.532223 0.0454797
thorax -4.93513 0.586148 1.69937
lowerneck -6.82914 -2.95909 -4.00253
upperneck 24.9961 -2.76876 -0.0592319
head 9.00117 -1.45005 0.428266
rclavicle 1.13307e-014 3.95581e-014
rhumerus 56.5246 8.8612 -62.8106
rradius 67.7109
rwrist 11.2061
rhand -38.2806 -7.2395
rfingers 7.12502
rthumb -11.3099 -36.9146
lclavicle 1.13307e-014 3.95581e-014
lhumerus 44.2192 -16.625 61.1938
lradius 55.3695
lwrist -20.3777
lhand -19.2524 -13.2903
lfingers 7.12502
lthumb 7.06151 16.5719
rfemur -82.2038 -2.29305 21.807
rtibia 105.827
rfoot -24.7717 0.97907
rtoes 8.502
lfemur -28.1007 4.6998 -24.5109
ltibia 30.6669
lfoot -18.5991 -1.66619
ltoes -7.64208
1092
root -24.0096 22.3053 -11.0782 362.68 83.7391 -9.56577
lowerback 30.0652 0.541232 -2.42499
upperback 10.2419 0.934772 0.11361
thorax -4.98651 0.788817 1.18221
lowerneck -6.95195 -3.22428 -4.46152
upperneck 24.9001 -3.16663 0.395253
head 9.01732 -1.63042 0.619956
rclavicle -4.77083e-015 0
rhumerus 54.8103 8.74016 -62.1695
rradius 68.3771
rwrist 10.4842
rhand -39.5215 -6.57587
rfingers 7.12502
rthumb -12.5065 -36.1816
lclavicle -4.77083e-015 0
lhumerus 45.1552 -17.2907 62.31
lradius 54.419
lwrist -21.1937
lhand -19.6125 -13.5387
lfingers 7.12502
lthumb 6.7139 16.3348
rfemur -81.8932 -2.25317 22.3331
rtibia 106.791
rfoot -24.8842 -1.65751
rtoes 5.7442
lfemur -28.338 4.6228 -24.0556
ltibia 30.5412
lfoot -18.4332 -2.84432
ltoes 1.23585
1093
root -24.0193 22.3827 -11.1155 341.38 83.2339 -30.6518
lowerback 31.0221 -0.135152 -0.149428
upperback 10.2324 0.74931 0.310523
thorax -5.42432 0.731159 0.139266
lowerneck -7.07485 -2.86678 -3.04403
upperneck 24.7223 -2.74982 -0.340781
head 8.92611 -1.38856 0.169288
rclavicle -7.15625e-015 -3.77691e-015
rhumerus 53.9234 10.1398 -62.5277
rradius 68.9552
rwrist 9.97579
rhand -40.7903 -7.15665
rfingers 7.12502
rthumb -13.7296 -36.6837
lclavicle -7.15625e-015 -3.77691e-015
lhumerus 45.1496 -16.692 61.7593
lradius 54.0124
lwrist -21.2321
lhand -19.7665 -13.3383
lfingers 7.12502
lthumb 6.56528 16.54
rfemur -80.1166 -1.48759 24.7899
rtibia 107.069
rfoot -25.0944 -2.75391
rtoes 7.81799
lfemur -27.9549 4.67203 -21.1949
ltibia 30.4409
lfoot -18.2276 -3.36313
ltoes 6.21954
1094
root -24.0539 22.3353 -11.0742 364.914 83.9414 -8.02242
lowerback 29.4715 0.391661 -3.0583
upperback 10.1211 0.545917 -0.125981
thorax -4.82898 0.586811 1.4144
lowerneck -7.12819 -2.8263 -3.25948
upperneck 24.699 -2.64973 -0.37156
head 8.93078 -1.36422 0.204491
rclavicle -3.97569e-015 -9.74045e-015
rhumerus 52.5484 11.0603 -62.0684
rradius 69.4467
rwrist 9.4897
rhand -41.7879 -7.71899
rfingers 7.12502
rthumb -14.6908 -37.1785
lclavicle -3.97569e-015 -9.74045e-015
lhumerus 45.3509 -16.9332 60.9134
lradius 54.064
lwrist -20.3399
lhand -19.5689 -12.9057
lfingers 7.12502
lthumb 6.75602 16.9665
rfemur -82.0254 -2.66889 21.9921
rtibia 108.678
rfoot -24.3102 -1.59318
rtoes 13.2705
lfemur -29.1199 3.6244 -24.0299
ltibia 30.2434
lfoot -17.3672 -2.42423
ltoes 2.73966
1095
root -24.0837 22.3629 -11.0692 362.587 84.1523 -10.1489
lowerback 30.109 0.512978 -2.56589
upperback 9.97626 0.822881 0.00317968
thorax -5.30113 0.731315 1.17492
lowerneck -7.26762 -3.06318 -4.46647
upperneck 25.0314 -2.96654 0.544389
head 9.11871 -1.52465 0.687036
rclavicle 1.35174e-014 2.38542e-014
rhumerus 50.7162 11.5011 -61.2736
rradius 69.905
rwrist 9.01952
rhand -42.8453 -8.99018
rfingers 7.12502
rthumb -15.7094 -38.3725
lclavicle 1.35174e-014 2.38542e-014
lhumerus 46.0269 -17.8728 60.1799
lradius 53.8432
lwrist -19.4002
lhand -19.5548 -12.6009
lfingers 7.12502
lthumb 6.76963 17.2709
rfemur -81.144 -2.97353 22.1318
rtibia 109.374
rfoot -24.0171 -0.0399483
rtoes 25.4644
lfemur -28.8708 2.77123 -23.6678
ltibia 30.051
lfoot -16.3467 -1.02678
ltoes -3.82661
1096
root -24.0896 22.436 -11.1006 341.737 83.9167 -30.4156
lowerback 31.4781 0.140953 0.300153
upperback 9.87629 1.20061 0.202704
thorax -6.02896 0.94396 -0.408847
lowerneck -6.74081 -3.57333 -6.0656
upperneck 24.3741 -3.84645 2.18073
head 8.88841 -1.91882 1.43275
rclavicle 2.3059e-014 3.52843e-014
rhumerus 48.7705 11.7144 -60.9005
rradius 70.2481
rwrist 8.5713
rhand -43.4936 -10.518
rfingers 7.12502
rthumb -16.3336 -39.8502
lclavicle 2.3059e-014 3.52843e-014
lhumerus 46.8301 -18.9694 60.3985
lradius 53.2224
lwrist -19.7353
lhand -19.4862 -12.5466
lfingers 7.12502
lthumb 6.83579 17.323
rfemur -78.7143 -2.42127 24.3642
rtibia 109.551
rfoot -23.5253 -5.92686
rtoes 10.894
lfemur -28.1692 3.06848 -21.3223
ltibia 30.0309
lfoot -15.9848 -0.680677
ltoes -8.54639
1097
root -24.1246 22.4621 -11.0426 336.68 83.1271 -35.2765
lowerback 32.0827 0.66829 0.273301
upperback 9.76997 1.88108 0.513113
thorax -6.43102 1.25858 -0.302957
lowerneck -6.43069 -3.39942 -4.77669
upperneck 24.2885 -3.64418 1.44583
head 8.74571 -1.77928 0.991095
rclavicle 2.78299e-015 -1.65985e-014
rhumerus 47.0377 12.2459 -60.5055
rradius 70.4013
rwrist 7.99353
rhand -43.4424 -10.7156
rfingers 7.12502
rthumb -16.2844 -40.0518
lclavicle 2.78299e-015 -1.65985e-014
lhumerus 47.115 -19.4156 59.0346
lradius 53.7032
lwrist -18.6003
lhand -19.2846 -12.5848
lfingers 7.12502
lthumb 7.03046 17.2785
rfemur -77.5311 -1.28064 25.3713
rtibia 109.924
rfoot -22.6909 -6.6147
rtoes 15.3586
lfemur -28.1529 4.64046 -20.4219
ltibia 30.1221
lfoot -16.0752 -1.7564
ltoes -6.51097
1098
root -24.1575 22.4734 -11.0237 336.798 83.0888 -35.1026
lowerback 32.2707 0.899066 -0.304703
upperback 9.74254 2.02302 0.806241
thorax -6.57417 1.31924 0.303407
lowerneck -6.27961 -3.18403 -4.45583
upperneck 24.1173 -3.24 0.736091
head 8.6272 -1.62972 0.73833
rclavicle -5.26779e-015 -1.31198e-014
rhumerus 45.8658 13.4453 -59.8541
rradius 70.2057
rwrist 7.72061
rhand -43.5001 -10.564
rfingers 7.12502
rthumb -16.3399 -39.8957
lclavicle -5.26779e-015 -1.31198e-014
lhumerus 47.4617 -19.1627 59.6475
lradius 52.7181
lwrist -18.8718
lhand -19.085 -13.2791
lfingers 7.12502
lthumb 7.22314 16.5776
rfemur -76.7315 -1.28824 25.1666
rtibia 110.415
rfoot -21.7724 -6.13308
rtoes 18.4136
lfemur -28.4609 6.20797 -20.6049
ltibia 30.3044
lfoot -15.7297 -4.9587
ltoes 3.89776
1099
root -24.176 22.5068 -11.0306 341.841 83.7103 -30.6795
lowerback 31.3624 0.931358 -1.22056
upperback 9.69672 1.77888 0.890141
thorax -6.23293 1.19057 1.03373
lowerneck -6.46293 -3.37973 -5.10228
upperneck 24.1524 -3.43043 0.848593
head 8.69768 -1.76539 0.864002
rclavicle -6.4605e-015 8.05078e-015
rhumerus 44.9547 14.8947 -59.2102
rradius 69.755
rwrist 7.84185
rhand -43.5063 -10.2208
rfingers 7.12502
rthumb -16.3459 -39.5519
lclavicle -6.4605e-015 8.05078e-015
lhumerus 47.8407 -18.6365 61.7642
lradius 51.0544
lwrist -20.2488
lhand -18.8803 -13.6669
lfingers 7.12502
lthumb 7.42072 16.1829
rfemur -76.6126 -2.01616 24.3043
rtibia 110.814
rfoot -20.136 -7.41712
rtoes 13.3523
lfemur -29.1097 2.15385 -20.1718
ltibia 30.4304
lfoot -14.8743 -4.24801
ltoes 13.7807
1100
root -24.1867 22.4748 -10.963 346.485 84.0624 -26.7143
lowerback 30.3566 1.27008 -2.9282
upperback 9.57952 1.71609 1.14337
thorax -5.9378 1.13399 2.34196
lowerneck -6.69436 -3.13393 -5.82702
upperneck 24.3214 -3.05882 1.25318
head 8.80909 -1.61797 1.15579
rclavicle 1.16289e-014 3.05134e-014
rhumerus 43.9145 16.5167 -58.7028
rradius 69.3359
rwrist 7.92732
rhand -43.273 -9.88412
rfingers 7.12502
rthumb -16.1212 -39.2336
lclavicle 1.16289e-014 3.05134e-014
lhumerus 47.7228 -18.1178 62.9956
lradius 50.2664
lwrist -21.2862
lhand -19.1762 -13.5522
lfingers 7.12502
lthumb 7.13505 16.3076
rfemur -76.772 -1.76261 23.9728
rtibia 111.558
rfoot -18.3602 -9.33347
rtoes 8.82399
lfemur -30.1934 4.40244 -21.5858
ltibia 30.6445
lfoot -15.2572 -3.44073
ltoes -5.91265
